<?xml version="1.0" encoding="UTF-8" standalone="no"?>
<!DOCTYPE svg PUBLIC "-//W3C//DTD SVG 1.1//EN" "http://www.w3.org/Graphics/SVG/1.1/DTD/svg11.dtd">
<svg width="100%" height="100%" viewBox="0 0 81 81" version="1.1" xmlns="http://www.w3.org/2000/svg" xmlns:xlink="http://www.w3.org/1999/xlink" xml:space="preserve" xmlns:serif="http://www.serif.com/" style="fill-rule:evenodd;clip-rule:evenodd;stroke-linejoin:round;stroke-miterlimit:1.41421;">
    <g transform="matrix(9,0,0,9,0,0)">
        <path d="M9,0L9,9L0,9L0,0L9,0ZM7.755,8.245C8.166,8.245 8.5,7.911 8.5,7.5C8.5,7.089 8.166,6.755 7.755,6.755L7.143,6.755C6.731,6.755 6.397,7.089 6.397,7.5C6.397,7.911 6.731,8.245 7.143,8.245L7.755,8.245ZM1.857,8.245C2.269,8.245 2.603,7.911 2.603,7.5C2.603,7.089 2.269,6.755 1.857,6.755L1.245,6.755C0.834,6.755 0.5,7.089 0.5,7.5C0.5,7.911 0.834,8.245 1.245,8.245L1.857,8.245ZM7.755,5.245C8.166,5.245 8.5,4.911 8.5,4.5C8.5,4.089 8.166,3.755 7.755,3.755L7.143,3.755C6.731,3.755 6.397,4.089 6.397,4.5C6.397,4.911 6.731,5.245 7.143,5.245L7.755,5.245ZM1.857,5.245C2.269,5.245 2.603,4.911 2.603,4.5C2.603,4.089 2.269,3.755 1.857,3.755L1.245,3.755C0.834,3.755 0.5,4.089 0.5,4.5C0.5,4.911 0.834,5.245 1.245,5.245L1.857,5.245ZM1.857,2.245C2.269,2.245 2.603,1.911 2.603,1.5C2.603,1.089 2.269,0.755 1.857,0.755L1.245,0.755C0.834,0.755 0.5,1.089 0.5,1.5C0.5,1.911 0.834,2.245 1.245,2.245L1.857,2.245ZM7.755,2.245C8.166,2.245 8.5,1.911 8.5,1.5C8.5,1.089 8.166,0.755 7.755,0.755L7.143,0.755C6.731,0.755 6.397,1.089 6.397,1.5C6.397,1.911 6.731,2.245 7.143,2.245L7.755,2.245Z" style="fill:rgb(0,43,53);"/>
    </g>
</svg>
